<?xml version="1.0" encoding="utf-8"?>
<!-- Generator: Adobe Illustrator 26.0.1, SVG Export Plug-In . SVG Version: 6.00 Build 0)  -->
<svg version="1.1" id="Layer_1" xmlns="http://www.w3.org/2000/svg" xmlns:xlink="http://www.w3.org/1999/xlink" x="0px" y="0px"
	 viewBox="0 0 841.89 595.28" style="enable-background:new 0 0 841.89 595.28;" xml:space="preserve">
<style type="text/css">
	.st0{opacity:0.56;}
	.st1{fill:#F1E4C4;}
	.st2{fill:#EB5D44;}
	.st3{fill:#0D8587;}
	.st4{opacity:0.56;fill:#F8AF3D;}
</style>
<g class="st0">
	<rect x="162.41" y="-133.25" class="st1" width="172.36" height="172.35"/>
	<rect x="334.77" y="39.11" class="st1" width="172.36" height="172.35"/>
	<rect x="507.12" y="211.46" class="st1" width="172.35" height="172.35"/>
	<rect x="162.41" y="383.81" class="st1" width="172.36" height="172.36"/>
	<rect x="-9.94" y="556.17" class="st1" width="172.36" height="172.36"/>
</g>
<g class="st0">
	<g>
		<g>
			<rect x="334.77" y="-133.25" class="st2" width="172.36" height="172.35"/>
		</g>
		<g>
			<rect x="679.48" y="-133.25" class="st2" width="172.36" height="172.35"/>
		</g>
		<g>
			<rect x="-9.94" y="39.11" class="st2" width="172.36" height="172.35"/>
		</g>
		<g>
			<rect x="334.77" y="211.46" class="st2" width="172.36" height="172.35"/>
		</g>
		<g>
			<rect x="679.48" y="211.46" class="st2" width="172.36" height="172.35"/>
		</g>
		<g>
			<rect x="507.12" y="383.81" class="st2" width="172.35" height="172.36"/>
		</g>
		<g>
			<rect x="334.77" y="556.17" class="st2" width="172.36" height="172.36"/>
		</g>
	</g>
</g>
<g class="st0">
	<rect x="-9.94" y="-133.25" class="st3" width="172.36" height="172.35"/>
	<rect x="162.41" y="39.11" class="st3" width="172.36" height="172.35"/>
	<rect x="507.12" y="39.11" class="st3" width="172.35" height="172.35"/>
	<rect x="-9.94" y="211.46" class="st3" width="172.36" height="172.35"/>
	<rect x="334.77" y="383.81" class="st3" width="172.36" height="172.36"/>
	<rect x="679.48" y="383.81" class="st3" width="172.36" height="172.36"/>
	<rect x="507.12" y="556.17" class="st3" width="172.35" height="172.36"/>
</g>
<rect x="507.12" y="-133.25" class="st4" width="172.35" height="172.35"/>
<rect x="679.48" y="39.11" class="st4" width="172.36" height="172.35"/>
<rect x="162.41" y="211.46" class="st4" width="172.36" height="172.35"/>
<rect x="-9.94" y="383.81" class="st4" width="172.36" height="172.36"/>
<rect x="162.41" y="556.17" class="st4" width="172.36" height="172.36"/>
<rect x="679.48" y="556.17" class="st4" width="172.36" height="172.36"/>
</svg>
